<svg width="56" height="56" viewBox="0 0 56 56" fill="none" xmlns="http://www.w3.org/2000/svg">
<g id="ant-design:alert-filled">
<path id="Vector" d="M28 13.3438C18.3652 13.3438 10.5547 21.1542 10.5547 30.7891V43.5312C10.5547 43.9954 10.7391 44.4405 11.0673 44.7687C11.3954 45.0969 11.8406 45.2812 12.3047 45.2812H43.6953C44.1594 45.2812 44.6046 45.0969 44.9328 44.7687C45.2609 44.4405 45.4453 43.9954 45.4453 43.5312V30.7891C45.4453 21.1542 37.6348 13.3438 28 13.3438ZM29.5313 3.71875H26.4688C26.3527 3.71875 26.2414 3.76484 26.1594 3.84689C26.0773 3.92894 26.0313 4.04022 26.0313 4.15625V9.40625C26.0313 9.52228 26.0773 9.63356 26.1594 9.71561C26.2414 9.79766 26.3527 9.84375 26.4688 9.84375H29.5313C29.6473 9.84375 29.7586 9.79766 29.8406 9.71561C29.9227 9.63356 29.9688 9.52228 29.9688 9.40625V4.15625C29.9688 4.04022 29.9227 3.92894 29.8406 3.84689C29.7586 3.76484 29.6473 3.71875 29.5313 3.71875ZM46.3066 10.4814C46.266 10.4407 46.2178 10.4085 46.1646 10.3864C46.1115 10.3644 46.0546 10.3531 45.9971 10.3531C45.9396 10.3531 45.8827 10.3644 45.8296 10.3864C45.7765 10.4085 45.7282 10.4407 45.6876 10.4814L41.9754 14.1936C41.8934 14.2756 41.8474 14.3869 41.8474 14.5029C41.8474 14.6188 41.8934 14.7301 41.9754 14.8121L44.141 16.9777C44.2231 17.0597 44.3343 17.1058 44.4503 17.1058C44.5663 17.1058 44.6775 17.0597 44.7595 16.9777L48.4717 13.2655C48.5537 13.1835 48.5998 13.0723 48.5998 12.9563C48.5998 12.8403 48.5537 12.7291 48.4717 12.647L46.3061 10.4814H46.3066ZM9.6879 10.4814L7.52227 12.647C7.44045 12.729 7.3945 12.8402 7.3945 12.956C7.3945 13.0719 7.44045 13.183 7.52227 13.265L11.2345 16.9783C11.2751 17.019 11.3233 17.0512 11.3765 17.0732C11.4296 17.0953 11.4865 17.1066 11.544 17.1066C11.6015 17.1066 11.6584 17.0953 11.7115 17.0732C11.7646 17.0512 11.8129 17.019 11.8535 16.9783L14.0191 14.8127C14.0598 14.772 14.0921 14.7238 14.1141 14.6707C14.1361 14.6175 14.1475 14.5606 14.1475 14.5031C14.1475 14.4456 14.1361 14.3887 14.1141 14.3356C14.0921 14.2825 14.0598 14.2342 14.0191 14.1936L10.3064 10.4814C10.2244 10.3994 10.1131 10.3534 9.99715 10.3534C9.88117 10.3534 9.76994 10.3994 9.6879 10.4814ZM45.5 48.7812H10.5C10.0359 48.7812 9.59076 48.9656 9.26257 49.2938C8.93438 49.622 8.75001 50.0671 8.75001 50.5312V51.8438C8.75001 51.9598 8.7961 52.0711 8.87815 52.1531C8.96019 52.2352 9.07148 52.2812 9.18751 52.2812H46.8125C46.9285 52.2812 47.0398 52.2352 47.1219 52.1531C47.2039 52.0711 47.25 51.9598 47.25 51.8438V50.5312C47.25 50.0671 47.0656 49.622 46.7374 49.2938C46.4093 48.9656 45.9641 48.7812 45.5 48.7812ZM37.4063 31.4453V45.2812H33.9063V31.4453H37.4063Z" fill="#6F2CFF"/>
</g>
</svg>
