<svg width="58" height="58" viewBox="0 0 58 58" fill="none" xmlns="http://www.w3.org/2000/svg">
<g id="bx:bxs-book-heart">
<path id="Vector" d="M14.529 43.5H50.75V9.66668C50.75 7.00109 48.5823 4.83334 45.9167 4.83334H14.5C11.5855 4.83334 7.25 6.76426 7.25 12.0833V45.9167C7.25 51.2358 11.5855 53.1667 14.5 53.1667H50.75V48.3333H14.529C13.4125 48.3043 12.0833 47.8645 12.0833 45.9167C12.0833 45.6726 12.1051 45.4551 12.1413 45.2569C12.412 43.8649 13.5527 43.5242 14.529 43.5ZM20.8993 18.4682C21.9052 17.4751 23.2619 16.9182 24.6754 16.9182C26.0889 16.9182 27.4455 17.4751 28.4514 18.4682L28.9928 18.9974L29.5317 18.4682C30.538 17.4749 31.895 16.918 33.3089 16.918C34.7228 16.918 36.0799 17.4749 37.0862 18.4682C37.5853 18.9482 37.9824 19.5241 38.2537 20.1614C38.5249 20.7986 38.6648 21.484 38.6648 22.1766C38.6648 22.8691 38.5249 23.5545 38.2537 24.1917C37.9824 24.829 37.5853 25.4049 37.0862 25.8849L28.9952 33.8333L20.9018 25.8849C20.4021 25.4052 20.0046 24.8295 19.7329 24.1923C19.4612 23.5552 19.3211 22.8697 19.3209 22.1771C19.3207 21.4844 19.4603 20.7989 19.7316 20.1615C20.0028 19.5242 20.4 18.9482 20.8993 18.4682Z" fill="#2C67FF"/>
</g>
</svg>
